<?xml version="1.0" encoding="UTF-8"?>
<svg width="438px" height="438px" viewBox="0 0 438 438" version="1.1" xmlns="http://www.w3.org/2000/svg" xmlns:xlink="http://www.w3.org/1999/xlink">
    <title>muggle copy@1x</title>
    <defs>
        <path d="M15.8283056,125.770851 C15.8292153,112.548696 16.2109528,102.748488 16.9735181,96.3702279 C22.6367696,49.0015789 37.1208669,23.6664002 53.0828222,16.2314149 C64.966246,10.6961857 84.6174685,19.3412587 106.990578,44.7890152 C110.462845,48.738462 115.114503,55.939251 120.945551,66.3913823 L15.8283056,125.770851 Z" id="path-1"></path>
        <path d="M15.8283056,125.770851 C15.8292153,112.548696 16.2109528,102.748488 16.9735181,96.3702279 C22.6367696,49.0015789 37.1208669,23.6664002 53.0828222,16.2314149 C64.966246,10.6961857 84.6174685,19.3412587 106.990578,44.7890152 C110.462845,48.738462 115.114503,55.939251 120.945551,66.3913823 L15.8283056,125.770851 Z" id="path-3"></path>
        <path d="M67.924312,246.488211 C47.4105113,234.565374 35.9853368,222.678105 33.3008944,219.716233 C7.81744878,209.37525 0.66340671,191.106896 0.367487229,190.326282 C-0.186628287,188.858499 0.279046704,187.199615 1.51616618,186.239264 C4.08639034,184.243425 7.30818225,181.291444 9.45695168,179.26593 C3.14896269,170.849859 0.254736038,160.200335 0.121865677,159.702585 C-0.359527417,157.899532 0.62463539,156.02892 2.37961395,155.4131 C12.0812461,152.007146 16.7939525,146.967775 18.1637327,145.280688 C24.6328847,94.0177505 46.5914934,54.7165861 83.4387081,28.4564587 C136.25824,-9.18666322 207.458521,-9.5112001 260.615468,27.6499572 C297.698035,53.5746035 320.011034,92.67751 326.942927,143.878781 C328.307468,145.528826 333.064395,150.539575 342.816325,153.863868 C344.576962,154.464324 345.5781,156.325465 345.113263,158.132517 C344.985632,158.631319 342.187391,169.307783 335.954639,177.780468 C338.122061,179.78662 341.369211,182.708715 343.958507,184.681613 C345.203381,185.630389 345.684774,187.285064 345.142813,188.757476 C344.855487,189.541037 337.86617,207.873372 312.477243,218.446077 C309.818997,221.432153 298.501754,233.42297 278.096932,245.53249 C256.9236,258.097034 221.526013,273.12044 173.134376,273.341218 C161.523099,273.394044 150.649315,272.587122 140.537965,271.159959 C108.508034,266.639384 84.1032695,255.891572 67.924312,246.488211 Z" id="path-5"></path>
    </defs>
    <g id="Logo" stroke="none" stroke-width="1" fill="none" fill-rule="evenodd">
        <g id="muggle-copy">
            <rect id="Rectangle-Copy-8" x="0" y="0" width="438" height="438"></rect>
            <g id="Group-9-Copy-5" transform="translate(44.000000, 69.000000)">
                <g id="Path-4">
                    <mask id="mask-2" fill="white">
                        <use xlink:href="#path-1"></use>
                    </mask>
                    <use id="Mask" fill="#E16900" transform="translate(68.386928, 70.200380) rotate(-20.000000) translate(-68.386928, -70.200380) " xlink:href="#path-1"></use>
                    <path d="M33.789039,16.9223649 C68.5033104,33.1189864 84.9062422,54.8158375 82.9978345,82.0129183 C81.0894268,109.209999 65.2443658,130.673444 35.4626516,146.403252 L-5.16320041,62.4345442 L13.7837492,14.5681018 L33.789039,16.9223649 Z" fill="#FFAB4F" opacity="0.600000024" mask="url(#mask-2)"></path>
                </g>
                <g id="Path-4" transform="translate(281.612107, 70.197825) scale(-1, 1) translate(-281.612107, -70.197825) translate(213.224214, 0.000000)">
                    <mask id="mask-4" fill="white">
                        <use xlink:href="#path-3"></use>
                    </mask>
                    <use id="Mask" fill="#E16900" transform="translate(68.386928, 70.200380) rotate(-20.000000) translate(-68.386928, -70.200380) " xlink:href="#path-3"></use>
                    <path d="M33.789039,16.9223649 C68.5033104,33.1189864 84.9062422,54.8158375 82.9978345,82.0129183 C81.0894268,109.209999 65.2443658,130.673444 35.4626516,146.403252 L-5.16320041,62.4345442 L13.7837492,14.5681018 L33.789039,16.9223649 Z" fill="#FFAB4F" opacity="0.600000024" mask="url(#mask-4)"></path>
                </g>
                <g id="Oval" transform="translate(3.819997, 35.654114)">
                    <mask id="mask-6" fill="white">
                        <use xlink:href="#path-5"></use>
                    </mask>
                    <use id="Mask" fill="#FFAB4F" xlink:href="#path-5"></use>
                    <ellipse fill="#F3912F" mask="url(#mask-6)" cx="51.7384245" cy="52.958014" rx="82.5868433" ry="82.604526"></ellipse>
                </g>
            </g>
        </g>
    </g>
</svg>